<svg width="28" height="28" viewBox="0 0 28 28" fill="none" xmlns="http://www.w3.org/2000/svg">
<path d="M17.5 25.6666V21C17.6623 19.5385 17.2433 18.0718 16.3333 16.9166C19.8333 16.9166 23.3333 14.5833 23.3333 10.5C23.4267 9.04165 23.0183 7.60665 22.1667 6.41665C22.4933 5.07498 22.4933 3.67498 22.1667 2.33331C22.1667 2.33331 21 2.33331 18.6667 4.08331C15.5867 3.49998 12.4133 3.49998 9.33333 4.08331C7 2.33331 5.83333 2.33331 5.83333 2.33331C5.48333 3.67498 5.48333 5.07498 5.83333 6.41665C4.98385 7.60184 4.57155 9.0449 4.66667 10.5C4.66667 14.5833 8.16667 16.9166 11.6667 16.9166C11.2117 17.4883 10.8733 18.1416 10.675 18.8416C10.4767 19.5416 10.4183 20.2766 10.5 21V25.6666" stroke="#F6F6F6" stroke-width="2" stroke-linecap="round" stroke-linejoin="round"/>
<path d="M10.5 21C5.23833 23.3334 4.66666 18.6667 2.33333 18.6667" stroke="#F6F6F6" stroke-width="2" stroke-linecap="round" stroke-linejoin="round"/>
</svg>
